<?xml version="1.0" standalone="no"?>
<!DOCTYPE svg PUBLIC "-//W3C//DTD SVG 20010904//EN"
 "http://www.w3.org/TR/2001/REC-SVG-20010904/DTD/svg10.dtd">
<svg version="1.0" xmlns="http://www.w3.org/2000/svg"
 width="800.000000pt" height="800.000000pt" viewBox="0 0 800.000000 800.000000"
 preserveAspectRatio="xMidYMid meet">
<metadata>
Created by potrace 1.14, written by Peter Selinger 2001-2017
</metadata>
<g transform="translate(0.000000,800.000000) scale(0.100000,-0.100000)"
fill="#000000" stroke="none">
<path d="M1497 6675 c-1 -1 -40 -5 -87 -9 -95 -7 -253 -42 -351 -79 -360 -136
-624 -433 -663 -747 -2 -19 -8 -62 -12 -95 -21 -166 1 -344 55 -459 57 -119
150 -201 261 -229 l55 -14 17 -79 c12 -57 16 -120 14 -226 -1 -81 -4 -149 -6
-151 -3 -3 -36 -7 -75 -10 -38 -4 -81 -9 -94 -13 -23 -7 -23 -6 -15 47 10 67
11 171 2 226 -15 87 -105 230 -215 341 -133 133 -222 273 -238 372 -36 215 59
420 235 508 69 34 64 31 58 37 -11 11 -138 -43 -206 -89 -169 -112 -235 -241
-228 -441 8 -202 59 -297 274 -515 121 -121 166 -185 192 -267 33 -107 12
-247 -48 -310 -59 -61 -156 -109 -231 -115 -63 -5 -19 -37 56 -41 110 -7 227
55 289 151 21 34 42 61 47 61 10 1 136 -90 237 -172 214 -173 377 -346 492
-523 l62 -94 105 1 c114 0 153 -4 245 -27 32 -8 61 -12 64 -10 6 7 4 104 -4
141 -10 48 -40 100 -76 131 -35 31 -95 61 -103 52 -3 -3 -6 -27 -8 -53 l-2
-49 39 -8 c51 -11 92 -41 104 -78 13 -36 3 -38 -68 -16 -57 17 -117 25 -197
27 l-63 2 -46 81 c-77 133 -238 365 -296 427 -7 8 -34 39 -59 69 -26 30 -61
71 -78 89 -29 31 -32 39 -27 76 5 30 17 51 43 75 38 36 63 85 63 122 0 28 -33
84 -70 118 -27 25 -36 47 -46 119 -5 35 -3 37 35 54 115 51 185 155 333 496
80 183 138 261 232 314 226 126 556 45 680 -168 32 -54 48 -122 48 -206 1 -72
-18 -169 -33 -169 -5 0 -9 5 -9 11 0 24 -86 131 -134 167 -85 64 -175 95 -281
96 -103 0 -143 -6 -215 -33 -204 -77 -321 -265 -315 -502 5 -173 76 -324 221
-466 30 -29 60 -53 67 -53 18 0 118 41 145 60 l22 15 -46 50 c-63 69 -138 183
-165 252 -19 48 -24 77 -23 163 0 95 2 110 27 158 30 58 83 114 128 137 33 18
136 42 164 39 127 -12 228 -82 278 -192 31 -68 30 -214 -2 -294 -80 -203 -299
-384 -536 -443 -98 -24 -152 -29 -303 -29 -81 0 -129 -3 -123 -9 24 -24 151
-49 266 -52 118 -4 276 16 348 44 15 6 27 9 28 8 0 -1 3 -51 5 -110 4 -130 26
-261 61 -377 33 -110 73 -200 89 -200 7 0 27 21 44 46 l31 47 -25 101 c-14 56
-28 137 -32 181 l-6 80 29 -45 c77 -119 254 -446 246 -454 -4 -3 -18 -6 -33
-6 l-27 0 43 -89 44 -89 34 5 c34 4 36 3 65 -55 138 -274 404 -1009 478 -1322
9 -36 20 -68 25 -71 5 -3 41 5 80 18 204 69 366 62 543 -22 217 -104 335 -335
331 -653 -1 -75 3 -122 9 -122 14 0 122 66 168 103 l39 30 -6 86 c-8 107 -12
133 -26 196 -6 28 -13 57 -15 66 -9 44 -71 174 -113 237 -115 173 -255 271
-479 334 -61 17 -104 21 -198 21 -66 0 -137 -2 -157 -5 -35 -5 -37 -3 -44 26
-35 163 -260 774 -417 1133 l-36 82 82 40 c268 133 492 365 630 651 71 149
132 378 156 595 10 83 7 404 -4 465 -30 169 -101 425 -128 458 -19 23 1 24 90
3 116 -29 98 -25 258 -60 77 -16 201 -42 275 -57 74 -14 142 -27 150 -29 35
-7 217 -38 237 -40 26 -4 98 -15 128 -21 36 -7 69 -13 115 -19 25 -3 56 -8 70
-10 62 -8 127 -17 153 -21 15 -2 44 -5 65 -8 42 -6 101 -13 187 -21 33 -3 71
-8 85 -10 23 -4 49 -6 215 -21 33 -3 76 -7 95 -9 19 -2 71 -7 115 -10 44 -4
96 -8 115 -10 19 -2 84 -6 145 -10 60 -4 118 -9 128 -10 9 -2 79 -7 155 -11
75 -3 160 -7 187 -9 194 -11 475 -21 655 -24 l75 -2 44 -79 c24 -44 81 -137
127 -207 46 -70 84 -132 84 -138 0 -6 -46 -57 -102 -113 l-102 -102 13 -36
c32 -88 224 -481 322 -659 120 -217 205 -348 373 -573 58 -78 106 -144 106
-146 0 -3 -19 -33 -42 -68 -100 -151 -176 -339 -204 -508 -10 -60 -13 -137
-10 -262 3 -98 7 -181 9 -185 3 -5 8 -39 12 -78 8 -85 14 -133 21 -160 4 -12
-17 3 -54 40 -177 179 -350 318 -549 443 -364 227 -795 391 -1218 461 -53 9
-84 14 -185 26 -231 30 -695 27 -845 -5 -22 -5 -60 -11 -85 -15 -156 -22 -364
-96 -521 -187 -134 -77 -256 -222 -275 -328 -25 -140 -4 -251 98 -505 55 -138
121 -355 142 -465 2 -14 11 -57 20 -95 8 -39 17 -82 19 -95 19 -102 18 -100
44 -100 25 0 107 49 151 90 17 16 22 29 17 48 -3 15 -8 41 -11 57 -3 17 -23
104 -46 195 -45 183 -80 292 -157 484 -102 254 -104 338 -9 437 87 92 307 192
508 232 205 41 304 50 520 50 236 1 394 -12 600 -49 47 -8 99 -17 115 -20 61
-10 263 -67 379 -106 227 -76 440 -180 681 -331 39 -24 241 -175 285 -212 81
-69 258 -254 323 -338 101 -129 191 -275 276 -445 36 -72 43 -81 59 -71 20 13
85 91 112 134 18 29 18 31 -2 85 -47 127 -126 364 -133 398 -2 11 -13 62 -24
113 -21 100 -26 124 -37 204 -3 28 -8 59 -10 70 -2 11 -7 67 -10 125 -3 58 -7
121 -8 141 -3 34 7 147 18 202 22 119 105 303 190 420 51 72 56 83 56 132 0
48 -3 56 -27 71 -31 18 -48 40 -191 234 -234 318 -320 469 -582 1012 l-32 67
45 48 c52 55 97 110 138 170 l29 41 -36 43 c-55 66 -222 319 -303 462 l-74
127 -196 1 c-108 1 -223 2 -256 4 -33 1 -141 5 -240 9 -99 4 -200 9 -225 11
-25 2 -97 6 -160 10 -63 3 -135 8 -160 10 -25 2 -84 7 -131 10 -47 3 -99 8
-115 10 -16 2 -74 6 -129 10 -55 4 -107 9 -116 10 -9 2 -56 6 -105 10 -49 4
-96 8 -104 10 -8 1 -44 6 -80 10 -36 3 -76 8 -90 10 -14 2 -50 7 -80 10 -30 3
-82 10 -115 15 -33 5 -76 12 -95 14 -19 3 -64 9 -100 15 -36 6 -87 13 -115 16
-27 4 -57 8 -65 10 -14 4 -30 7 -115 21 -142 23 -472 87 -625 120 -63 14 -123
27 -133 29 -10 2 -26 6 -35 9 -9 3 -28 7 -42 10 -78 14 -323 81 -331 90 -5 6
-20 25 -33 41 -20 25 -36 32 -97 44 -41 7 -93 21 -117 31 l-42 19 63 -82 c142
-183 259 -428 301 -632 2 -5 8 -35 14 -65 48 -228 48 -489 2 -704 -55 -253
-139 -443 -271 -615 -53 -69 -193 -199 -272 -252 -99 -66 -216 -124 -228 -112
-4 4 -36 62 -70 128 -68 132 -221 404 -251 447 -11 16 -17 32 -14 37 3 4 29
11 58 15 29 4 94 19 143 33 386 109 650 385 747 782 32 132 30 332 -6 466 -69
261 -257 521 -505 699 -143 103 -424 230 -558 252 -15 2 -52 9 -80 15 -44 9
-288 20 -296 14z m273 -179 c8 -3 31 -7 50 -10 123 -19 311 -93 440 -175 262
-165 439 -389 512 -648 18 -64 22 -104 22 -218 0 -136 -1 -143 -37 -247 -72
-208 -160 -332 -320 -451 -114 -85 -334 -168 -478 -180 l-53 -5 44 37 c165
135 255 289 273 466 2 26 18 61 45 99 23 33 42 63 42 67 0 5 11 32 25 61 46
99 53 272 15 397 -141 467 -828 589 -1123 199 -40 -53 -82 -135 -143 -278
-140 -333 -205 -413 -326 -396 -65 9 -126 55 -158 117 -57 110 -68 260 -34
483 29 195 152 378 337 499 151 100 357 170 557 190 51 5 292 0 310 -7z m-882
-1600 c51 -26 77 -64 77 -110 0 -56 -25 -92 -75 -107 -22 -7 -43 -10 -46 -6
-11 10 7 47 23 47 52 0 70 73 27 111 -58 53 -64 59 -64 69 0 14 26 12 58 -4z"/>
<path d="M6560 2481 c0 -5 20 -37 43 -72 128 -188 242 -421 312 -639 23 -72
23 -72 46 -59 27 14 149 169 149 189 0 19 -74 192 -117 275 -38 73 -53 89
-129 140 -32 22 -60 43 -62 48 -2 4 -8 7 -14 7 -5 0 -28 13 -51 29 -55 37
-153 91 -166 91 -6 0 -11 -4 -11 -9z"/>
</g>
</svg>
